<svg width="100" height="100" viewBox="0 0 100 100" fill="none" xmlns="http://www.w3.org/2000/svg">
<path d="M45.7123 0.300699C42.866 1.33019 41.0695 4.01495 41.3319 6.82082L41.4328 8.0118L39.2729 9.16241C38.1021 9.80837 31.5214 13.3611 24.6581 17.0552L12.1831 23.7974L11.1536 23.0908C7.72198 20.7291 3.30122 21.8393 1.50465 25.5132C1.10093 26.3408 1 26.8253 1 28.2383C1 29.7119 1.08074 30.0954 1.56521 31.0038C2.29191 32.3966 3.34159 33.4261 4.67388 34.0317L5.74374 34.5162V65.5625L4.67388 66.0469C3.34159 66.6525 2.29191 67.682 1.56521 69.0748C1.08074 69.9832 1 70.3668 1 71.8403C1 73.2534 1.08074 73.7378 1.48447 74.5655C3.30122 78.2393 7.72198 79.3496 11.1536 76.9878L12.1831 76.2813L24.6581 83.0235C31.5214 86.7175 38.0819 90.2703 39.2527 90.896L41.3723 92.0467V93.7019C41.3924 95.66 41.8769 96.8913 43.189 98.1832C44.5011 99.5155 45.7123 100 47.7309 100C49.7495 100 50.9607 99.5155 52.2728 98.1832C53.5849 96.8913 54.0693 95.66 54.0895 93.7019V92.0467L83.3392 76.2611L83.8439 76.685C84.1265 76.9071 84.8734 77.3512 85.479 77.6539C86.4277 78.1182 86.8314 78.199 88.2041 78.1788C90.1218 78.1788 91.3733 77.6741 92.645 76.3822C93.9773 75.0701 94.4416 73.859 94.4618 71.8403C94.4618 70.3668 94.381 69.9832 93.8966 69.0748C93.1699 67.682 92.1202 66.6525 90.7879 66.0469L89.718 65.5625V34.5162L90.7879 34.0317C92.1202 33.4261 93.1699 32.3966 93.8966 31.0038C94.381 30.0954 94.4618 29.7119 94.4618 28.2383C94.4416 26.2197 93.9773 25.0085 92.645 23.6964C91.3329 22.3641 90.1218 21.8999 88.1031 21.8797C86.2864 21.8797 85.4588 22.1825 83.9448 23.3331L83.319 23.7974L68.7043 15.9248L54.0895 8.03199V6.37672C54.0693 4.41867 53.5849 3.18732 52.2728 1.8954C50.6175 0.240141 47.7914 -0.446188 45.7123 0.300699ZM49.0026 3.49011C51.102 4.35811 51.5864 7.02268 49.9514 8.65776C48.6191 9.99004 46.8023 10.0102 45.4902 8.67794C42.9872 6.19505 45.7527 2.11745 49.0026 3.49011ZM43.6331 11.4031C43.9965 11.6857 44.7232 12.0894 45.2076 12.3114L46.116 12.7152V25.816H49.3458V12.7152L50.2542 12.3114C50.7386 12.0894 51.4653 11.6857 51.8489 11.3829L52.5352 10.858L62.386 16.1872C67.8161 19.1142 74.3968 22.6669 77.0008 24.08L81.7445 26.6436V29.833L75.4868 33.2041C72.0552 35.0612 69.0273 36.7165 68.7648 36.878L68.3207 37.1606L69.0676 38.5534L69.7943 39.9261L70.622 39.5022C71.0862 39.2801 74.1142 37.645 77.3843 35.8687L83.2989 32.6591L83.9852 33.1839C84.3687 33.4867 85.0954 33.8904 85.5799 34.1125L86.4883 34.5162V65.5625L85.5799 65.9662C85.0954 66.1882 84.3687 66.5919 83.9852 66.8947L83.2989 67.4196L77.3439 64.1898C74.0738 62.4134 71.0257 60.7783 70.5816 60.5563L69.7741 60.1526L69.0474 61.5252L68.3207 62.9181L68.785 63.2007C69.0273 63.3622 72.0552 65.0174 75.4868 66.8746L81.7445 70.2456V73.4351L78.4138 75.2316C76.5769 76.2207 70.0164 79.7735 63.799 83.1244L52.5352 89.2206L51.8489 88.6958C51.4653 88.393 50.7386 87.9892 50.2542 87.7672L49.3458 87.3635V74.2627H46.116V87.3635L45.2076 87.7672C44.7232 87.9892 43.9965 88.393 43.6331 88.6958L42.9468 89.2004L28.332 81.3278L13.7173 73.4351V70.2456L20.1768 66.7736C23.7296 64.8559 26.7575 63.2007 26.8988 63.0998C27.0805 62.9584 26.9795 62.5951 26.3942 61.5252L25.6473 60.1526L25.0417 60.4756C24.6985 60.6572 21.6504 62.2923 18.2793 64.1091L12.1629 67.4196L11.4766 66.8947C11.0931 66.5919 10.3664 66.1882 9.8819 65.9662L8.97352 65.5625V34.5162L9.8819 34.1125C10.3664 33.8904 11.0931 33.4867 11.4766 33.1839L12.1629 32.6591L18.2793 35.9696C21.6504 37.7863 24.6985 39.4214 25.0417 39.6031L25.6876 39.9261L26.4143 38.5534C26.9594 37.4836 27.0805 37.1202 26.8786 36.9789C26.7575 36.8578 23.7296 35.2227 20.1768 33.305L13.7173 29.833V26.6436L28.2513 18.771C36.245 14.4512 42.8257 10.8984 42.866 10.8984C42.9064 10.8782 43.2496 11.1205 43.6331 11.4031ZM8.7111 25.3315C10.7903 26.3206 11.194 29.1265 9.47817 30.6405C8.16608 31.7709 6.43007 31.7103 5.15834 30.4991C2.55433 28.0163 5.46113 23.7974 8.7111 25.3315ZM89.8795 25.5535C90.909 26.3206 91.232 26.9666 91.232 28.2383C91.232 30.1964 90.0612 31.3672 88.1031 31.3672C86.8314 31.3672 86.1855 31.0442 85.3982 29.9743C84.7523 29.1063 84.8128 27.3097 85.5193 26.3812C85.8221 25.9976 86.3671 25.5334 86.7305 25.3315C87.5783 24.9076 89.1528 25.0085 89.8795 25.5535ZM9.13501 69.1556C10.1645 69.9227 10.4875 70.5686 10.4875 71.8403C10.4875 73.7984 9.31669 74.9692 7.35863 74.9692C6.08691 74.9692 5.44095 74.6462 4.65369 73.5763C4.00773 72.7083 4.06829 70.9118 4.77481 69.9832C5.0776 69.5997 5.62262 69.1354 5.98597 68.9335C6.83379 68.5096 8.40831 68.6106 9.13501 69.1556ZM89.3951 68.8932C89.7584 69.0547 90.3236 69.4987 90.6264 69.9025C92.4432 72.2844 90.3842 75.5344 87.3764 74.9894C86.4277 74.8077 85.1358 73.5158 84.9541 72.567C84.4697 69.9227 86.9525 67.8637 89.3951 68.8932ZM49.5073 90.9566C50.5368 91.7237 50.8597 92.3696 50.8597 93.6414C50.8597 95.5994 49.6889 96.7702 47.7309 96.7702C46.4592 96.7702 45.8132 96.4472 45.0259 95.3774C44.38 94.5094 44.4406 92.7128 45.1471 91.7842C45.4499 91.4007 45.9949 90.9364 46.3582 90.7346C47.2061 90.3106 48.7806 90.4116 49.5073 90.9566Z" fill="url(#paint0_linear_0_2408)"/>
<path d="M43.6937 30.8825C39.7574 31.3468 35.377 33.0222 33.54 34.7986C32.995 35.3033 32.3491 36.1915 32.0665 36.7769L31.582 37.8265V62.2517L32.0665 63.2611C34.1456 67.702 43.0073 70.306 52.0104 69.115C57.8441 68.348 62.0227 66.2082 63.3953 63.2611L63.8798 62.2517V37.8265L63.3953 36.8172C61.3565 32.457 52.7169 29.853 43.6937 30.8825ZM51.1625 34.0921C55.7246 34.6573 59.56 36.2924 60.3876 38.0284C60.8115 38.9166 60.5087 39.7038 59.4389 40.5517C55.0988 43.9833 44.3396 44.5889 38.1223 41.7628C33.863 39.8451 33.8025 37.7054 37.9608 35.7877C41.3924 34.193 46.5197 33.5269 51.1625 34.0921ZM36.6487 44.5687C40.04 46.1432 43.3101 46.8094 47.7107 46.8094C52.2728 46.8094 55.987 46.0221 59.2168 44.387C59.8829 44.064 60.4885 43.7814 60.5491 43.7814C60.6096 43.7814 60.65 45.2348 60.65 47.0112C60.65 50.6447 60.5491 51.0283 59.3581 51.9366C54.2712 55.8124 41.1906 55.8124 36.1239 51.9366C34.9127 51.0283 34.8118 50.6447 34.8118 47.0112C34.8118 45.2348 34.8521 43.7814 34.8925 43.7814C34.9329 43.7814 35.7201 44.1448 36.6487 44.5687ZM36.6487 55.8729C40.04 57.4474 43.3101 58.1136 47.7107 58.1136C52.2728 58.1136 55.987 57.3263 59.2168 55.6913C59.8829 55.3683 60.4885 55.0857 60.5491 55.0857C60.6096 55.0857 60.65 56.5391 60.65 58.3154C60.65 61.949 60.5491 62.3325 59.3581 63.2409C57.0569 64.9971 52.3535 66.188 47.7309 66.188C43.1486 66.188 38.4049 64.9769 36.1239 63.2409C34.9127 62.3325 34.8118 61.949 34.8118 58.3154C34.8118 56.5391 34.8521 55.0857 34.8925 55.0857C34.9329 55.0857 35.7201 55.449 36.6487 55.8729Z" fill="url(#paint1_linear_0_2408)"/>
<path d="M54.1905 51.6542H57.4202V48.4244H54.1905V51.6542Z" fill="url(#paint2_linear_0_2408)"/>
<path d="M54.1905 62.9584H57.4202V59.7287H54.1905V62.9584Z" fill="url(#paint3_linear_0_2408)"/>
<defs>
<linearGradient id="paint0_linear_0_2408" x1="0.169961" y1="50.9223" x2="95.3069" y2="49.2975" gradientUnits="userSpaceOnUse">
<stop stop-color="#29CCB9"/>
<stop offset="0.4948" stop-color="#0091FF"/>
<stop offset="1" stop-color="#FF66B7"/>
</linearGradient>
<linearGradient id="paint1_linear_0_2408" x1="0.169961" y1="50.9223" x2="95.3069" y2="49.2975" gradientUnits="userSpaceOnUse">
<stop stop-color="#29CCB9"/>
<stop offset="0.4948" stop-color="#0091FF"/>
<stop offset="1" stop-color="#FF66B7"/>
</linearGradient>
<linearGradient id="paint2_linear_0_2408" x1="0.169961" y1="50.9223" x2="95.3069" y2="49.2975" gradientUnits="userSpaceOnUse">
<stop stop-color="#29CCB9"/>
<stop offset="0.4948" stop-color="#0091FF"/>
<stop offset="1" stop-color="#FF66B7"/>
</linearGradient>
<linearGradient id="paint3_linear_0_2408" x1="0.169961" y1="50.9223" x2="95.3069" y2="49.2975" gradientUnits="userSpaceOnUse">
<stop stop-color="#29CCB9"/>
<stop offset="0.4948" stop-color="#0091FF"/>
<stop offset="1" stop-color="#FF66B7"/>
</linearGradient>
</defs>
</svg>
