<svg width="64" height="64" viewBox="0 0 64 64" fill="none" xmlns="http://www.w3.org/2000/svg">
<path d="M26 11H38M32 8V0M32 18V24M32 28V34M32 38V44M32 48V54M21 58H43M0 63H64M56 43V63M8 43V63M18 14H46V63H18V14ZM23 8H41V14H23V8ZM22 18H42V24H22V18ZM22 28H42V34H22V28ZM22 38H42V44H22V38ZM22 48H42V54H22V48ZM56 54C53.25 54 51 51.75 51 49V39C51 36.25 53.25 34 56 34C58.75 34 61 36.25 61 39V49C61 51.75 58.75 54 56 54ZM8 54C5.25 54 3 51.75 3 49V39C3 36.25 5.25 34 8 34C10.75 34 13 36.25 13 39V49C13 51.75 10.75 54 8 54Z" stroke="url(#paint0_linear_0_1437)" stroke-width="2" stroke-miterlimit="10" stroke-linejoin="round"/>
<defs>
<linearGradient id="paint0_linear_0_1437" x1="-0.568387" y1="32.081" x2="64.5753" y2="30.8718" gradientUnits="userSpaceOnUse">
<stop stop-color="#29CCB9"/>
<stop offset="0.4948" stop-color="#0091FF"/>
<stop offset="1" stop-color="#FF66B7"/>
</linearGradient>
</defs>
</svg>
