<svg width="78" height="71" viewBox="0 0 78 71" fill="none" xmlns="http://www.w3.org/2000/svg">
<path d="M67.6 0C61.8956 0 57.2 4.56256 57.2 10.2112C57.2 11.8495 57.8734 13.5062 58.773 15.2129C59.6752 16.9222 60.8478 18.6526 62.01 20.2251C63.4656 22.1846 65.0145 24.0715 66.651 25.879C66.7726 26.0104 66.9196 26.1151 67.0828 26.1867C67.246 26.2583 67.4221 26.2953 67.6 26.2953C67.7779 26.2953 67.9539 26.2583 68.1172 26.1867C68.2804 26.1151 68.4274 26.0104 68.549 25.879C68.549 25.879 70.8708 23.3703 73.1952 20.2251C74.3574 18.6526 75.5248 16.9196 76.427 15.2129C77.3266 13.5062 78 11.8495 78 10.2112C78 4.56256 73.3044 0 67.6 0ZM67.6 2.62972C71.9472 2.62972 75.4 6.02994 75.4 10.2112C75.4 11.029 74.9398 12.4517 74.1364 13.9743C73.3304 15.4995 72.2176 17.1484 71.1048 18.6552C69.3524 21.0219 68.2708 22.1817 67.6 22.9285C66.9318 22.1817 65.8424 21.0246 64.09 18.6552C62.9772 17.1484 61.8748 15.4995 61.0688 13.9743C60.2628 12.4517 59.8 11.029 59.8 10.2112C59.8 6.02994 63.2528 2.62972 67.6 2.62972ZM67.6 5.93264C65.4602 5.93264 63.7 7.71296 63.7 9.87721C63.7 12.0388 65.4602 13.8218 67.6 13.8218C69.7398 13.8218 71.5 12.0388 71.5 9.87721C71.5 7.71296 69.7398 5.93264 67.6 5.93264ZM67.6 8.56235C68.3332 8.56235 68.9 9.13563 68.9 9.87721C68.9 10.6188 68.3332 11.1921 67.6 11.1921C67.4286 11.1945 67.2585 11.1622 67.0996 11.097C66.9408 11.0318 66.7965 10.9351 66.6753 10.8125C66.5541 10.6899 66.4584 10.544 66.394 10.3833C66.3295 10.2227 66.2975 10.0506 66.3 9.87721C66.3 9.13563 66.8668 8.56235 67.6 8.56235ZM64.5164 25.1296L60.0652 27.8382L61.399 30.0918L65.858 27.3859L64.5164 25.1322V25.1296ZM50.96 28.9269C45.253 28.9269 40.56 33.4894 40.56 39.1381C40.56 40.7764 41.2308 42.4331 42.133 44.1398C42.8974 45.5861 43.862 47.0325 44.8448 48.4025C43.1106 49.4676 41.86 51.0323 41.86 52.9782C41.86 54.9006 43.1002 56.5073 44.7642 57.5461C46.4282 58.5848 48.5862 59.1686 50.96 59.1686C53.3312 59.1686 55.497 58.5848 57.1584 57.5461C58.8224 56.5073 60.06 54.9006 60.06 52.9782C60.06 51.0296 58.812 49.4623 57.0778 48.3973C58.058 47.0298 59.0226 45.5835 59.7844 44.1398C60.6866 42.4331 61.36 40.7764 61.36 39.1381C61.36 33.4894 56.6644 28.9269 50.96 28.9269ZM50.96 31.5566C55.3046 31.5566 58.76 34.9568 58.76 39.1381C58.76 39.9559 58.292 41.3786 57.4886 42.9012C56.6826 44.4264 55.5802 46.0752 54.4674 47.5821C52.7176 49.9514 51.6282 51.1085 50.9574 51.8554C50.2892 51.1085 49.2024 49.9514 47.45 47.5821C46.3372 46.0752 45.2322 44.4264 44.4288 42.9012C43.6228 41.3786 43.16 39.9559 43.16 39.1381C43.16 34.9568 46.6128 31.5566 50.96 31.5566ZM50.96 34.8595C48.8202 34.8595 47.06 36.6398 47.06 38.8041C47.06 40.9657 48.8202 42.7487 50.96 42.7487C53.0972 42.7487 54.86 40.9657 54.86 38.8041C54.86 36.6398 53.0972 34.8595 50.96 34.8595ZM50.96 37.4892C51.6932 37.4892 52.26 38.0625 52.26 38.8041C52.26 39.5457 51.6932 40.1189 50.96 40.1189C50.7886 40.1214 50.6185 40.0891 50.4596 40.0239C50.3008 39.9587 50.1565 39.8619 50.0353 39.7393C49.9141 39.6168 49.8184 39.4708 49.754 39.3102C49.6895 39.1495 49.6575 38.9774 49.66 38.8041C49.66 38.0625 50.2268 37.4892 50.96 37.4892ZM10.4 44.7052C4.6956 44.7052 0 49.273 0 54.9216C0 56.5599 0.6734 58.2114 1.573 59.9181C2.4752 61.6274 3.6426 63.363 4.8048 64.9356C6.25959 66.8947 7.81026 68.779 9.451 70.5816C9.56952 70.7102 9.71236 70.8135 9.87104 70.8853C10.0297 70.9571 10.201 70.996 10.3749 70.9997C10.5487 71.0034 10.7214 70.9718 10.883 70.9067C11.0445 70.8417 11.1915 70.7445 11.3152 70.621L14.5548 69.6822L13.9386 67.5101C14.6094 66.6948 15.2438 65.948 15.9926 64.9356C17.1522 63.363 18.3248 61.6248 19.227 59.9181C20.1266 58.2114 20.8 56.5599 20.8 54.9216C20.8 49.273 16.1044 44.7052 10.4 44.7052ZM10.4 47.3349C14.7472 47.3349 18.2 50.7404 18.2 54.9216C18.2 55.7394 17.7346 57.1516 16.9312 58.6742C16.0377 60.3082 15.0279 61.8744 13.91 63.3604C12.1602 65.7271 11.0708 66.8816 10.4 67.6284C9.7318 66.8816 8.6476 65.7271 6.8952 63.3604C5.7824 61.8535 4.6696 60.1994 3.8636 58.6742C3.0576 57.1516 2.6 55.7394 2.6 54.9216C2.6 50.7404 6.0528 47.3349 10.4 47.3349ZM55.4736 50.4984C56.7788 51.2216 57.46 52.1499 57.46 52.9782C57.46 53.7514 56.953 54.5824 55.7934 55.3055C54.6338 56.0313 52.897 56.5389 50.9574 56.5389C49.023 56.5389 47.2914 56.0313 46.1292 55.3055C44.9696 54.5824 44.46 53.7514 44.46 52.9782C44.46 52.1499 45.1412 51.2269 46.4438 50.5063C48.321 52.8967 50.0084 54.8085 50.0084 54.8085C50.13 54.9399 50.277 55.0446 50.4402 55.1162C50.6034 55.1878 50.7795 55.2248 50.9574 55.2248C51.1353 55.2248 51.3114 55.1878 51.4746 55.1162C51.6378 55.0446 51.7848 54.9399 51.9064 54.8085C51.9064 54.8085 53.5964 52.8915 55.4736 50.4984ZM10.4 50.6378C8.2602 50.6378 6.5 52.4181 6.5 54.5824C6.5 56.744 8.2602 58.5269 10.4 58.5269C12.5398 58.5269 14.3 56.744 14.3 54.5824C14.3 52.4181 12.5398 50.6378 10.4 50.6378ZM39.572 52.5943L34.372 52.6206L34.385 55.2503L39.585 55.224L39.5746 52.5943H39.572ZM10.4 53.2675C11.1332 53.2675 11.7 53.8408 11.7 54.5824C11.7 55.324 11.1332 55.8972 10.4 55.8972C10.2286 55.8997 10.0585 55.8674 9.89963 55.8022C9.7408 55.737 9.59651 55.6402 9.4753 55.5176C9.35409 55.3951 9.25843 55.2491 9.19396 55.0885C9.1295 54.9278 9.09755 54.7557 9.1 54.5824C9.1 53.8408 9.6668 53.2675 10.4 53.2675ZM31.2858 54.1879L27.9448 58.2114L29.9364 59.9023L33.2774 55.8709L31.2858 54.1879ZM26.273 60.231L22.932 64.2597L24.9288 65.948L28.2646 61.9219L26.273 60.231ZM21.333 64.9776L16.3358 66.4319L17.0586 68.9564L22.0532 67.5048L21.333 64.9776Z" fill="url(#paint0_linear_0_1429)"/>
<defs>
<linearGradient id="paint0_linear_0_1429" x1="-0.692722" y1="36.1548" x2="78.6965" y2="34.5611" gradientUnits="userSpaceOnUse">
<stop stop-color="#29CCB9"/>
<stop offset="0.4948" stop-color="#0091FF"/>
<stop offset="1" stop-color="#FF66B7"/>
</linearGradient>
</defs>
</svg>
