<svg width="99" height="13" viewBox="0 0 99 13" fill="none" xmlns="http://www.w3.org/2000/svg">
<path d="M3.65549 13H0V0H3.65549V13ZM8.47863 13H4.82306V0H8.71191L12.3286 4.87012L14.2341 7.85816H14.4868L14.3119 5.0254V0H17.9674V13H14.0785L10.2286 7.99398L8.57581 5.43284H8.32303L8.47863 7.91638V13Z" fill="white"/>
<path d="M25.415 13H19.7566V0H25.415C29.3233 0 31.8121 2.52239 31.8121 6.49996C31.8121 10.4776 29.3233 13 25.415 13ZM25.415 1.26115H21.1567V11.7388H25.415C28.7205 11.7388 30.3538 10.0313 30.3538 6.49996C30.3538 2.96866 28.7205 1.26115 25.415 1.26115ZM34.1025 13H32.5859L38.4775 0H40.4025L46.3136 13H44.758L43.0081 9.17762H35.8525L34.1025 13ZM38.6526 3.00742L36.4164 7.93584H42.4441L40.1886 3.00742L39.4692 1.31937H39.3525L38.6526 3.00742ZM53.3683 13H51.9878V1.26115H46.6212V0H58.7155V1.26115H53.3683V13Z" fill="white"/>
<path d="M63.1684 13H59.5129V0H63.4018L67.0183 4.87012L68.9238 7.85816H69.1765L69.0016 5.0254V0H72.6569V13H68.7681L64.9184 7.99398L63.2656 5.43284H63.0129L63.1684 7.91638V13ZM85.3999 13H73.8304V0H85.3999V3.27913H77.4858V4.83137H85.1078V8.09103H77.4858V9.72087H85.3999V13ZM94.4105 13H90.7552V3.27913H86.1474V0H99V3.27913H94.4105V13Z" fill="white"/>
</svg>
