<svg width="84" height="5" viewBox="0 0 84 5" fill="none" xmlns="http://www.w3.org/2000/svg">
<path d="M0.497 4.76H0V0.07H0.497V4.76ZM1.83001 4.76H1.33301V0.07H1.87901L4.33601 3.255L4.90301 4.039H4.94501L4.93101 3.269V0.07H5.42801V4.76H4.88201L2.43901 1.61L1.85101 0.819H1.81601L1.83001 1.603V4.76ZM6.75872 4.76H6.26172V0.07H9.7757V0.525H6.75872V2.317H9.6707V2.765H6.75872V4.76ZM10.9355 4.76H10.4385V0.07H10.9355V4.76ZM12.2685 4.76H11.7715V0.07H12.3175L14.7745 3.255L15.3415 4.039H15.3835L15.3695 3.269V0.07H15.8665V4.76H15.3205L12.8775 1.61L12.2895 0.819H12.2545L12.2685 1.603V4.76ZM17.1972 4.76H16.7002V0.07H17.1972V4.76ZM20.1192 4.76H19.6222V0.525H17.6902V0.07H22.0442V0.525H20.1192V4.76ZM26.1011 4.76H22.5381V0.07H26.1011V0.525H23.0351V2.177H25.9961V2.625H23.0351V4.305H26.1011V4.76ZM30.133 4.76H28.096V0.07H30.133C31.54 0.07 32.436 0.98 32.436 2.415C32.436 3.85 31.54 4.76 30.133 4.76ZM30.133 0.525H28.6V4.305H30.133C31.323 4.305 31.911 3.689 31.911 2.415C31.911 1.141 31.323 0.525 30.133 0.525ZM33.2606 4.76H32.7146L34.8356 0.07H35.5286L37.6566 4.76H37.0966L36.4666 3.381H33.8906L33.2606 4.76ZM34.8986 1.155L34.0936 2.933H36.2636L35.4516 1.155L35.1926 0.546H35.1506L34.8986 1.155ZM40.1964 4.76H39.6994V0.525H37.7674V0.07H42.1214V0.525H40.1964V4.76ZM42.7762 4.76H42.2302L44.3512 0.07H45.0442L47.1722 4.76H46.6122L45.9822 3.381H43.4062L42.7762 4.76ZM44.4142 1.155L43.6092 2.933H45.7792L44.9672 1.155L44.7082 0.546H44.6662L44.4142 1.155ZM49.4081 4.76H48.9111V0.07H49.4571L51.9141 3.255L52.4811 4.039H52.5231L52.5091 3.269V0.07H53.0061V4.76H52.4601L50.0171 1.61L49.4291 0.819H49.3941L49.4081 1.603V4.76ZM57.4028 4.76H53.8398V0.07H57.4028V0.525H54.3368V2.177H57.2978V2.625H54.3368V4.305H57.4028V4.76ZM60.1846 4.76H59.6876V0.525H57.7556V0.07H62.1096V0.525H60.1846V4.76ZM64.3955 4.76H63.6535L62.2955 0.07H62.8485L63.7795 3.304L64.0245 4.263H64.0665L64.3465 3.304L65.4385 0.07H66.1385L67.3425 3.304L67.6575 4.263H67.6925L67.9095 3.304L68.7285 0.07H69.2745L68.0635 4.76H67.3215L66.1805 1.708L65.8095 0.616H65.7605L65.4315 1.708L64.3955 4.76ZM72.0064 4.83C70.6134 4.83 69.6404 3.878 69.6404 2.415C69.6404 0.952 70.6134 0 72.0064 0C73.4134 0 74.3864 0.952 74.3864 2.415C74.3864 3.878 73.4134 4.83 72.0064 4.83ZM72.0064 4.347C73.1964 4.347 73.8614 3.689 73.8614 2.415C73.8614 1.141 73.1964 0.483 72.0064 0.483C70.8234 0.483 70.1654 1.141 70.1654 2.415C70.1654 3.689 70.8234 4.347 72.0064 4.347ZM75.5488 4.76H75.0518V0.07H77.3478C78.3278 0.07 78.9928 0.567 78.9928 1.428C78.9928 2.219 78.4118 2.709 77.5438 2.73V2.765C77.8518 2.849 78.0268 3.052 78.1878 3.325L79.0698 4.76H78.4958L77.6628 3.402C77.4248 3.01 77.1798 2.842 76.5568 2.842H75.5488V4.76ZM75.5488 0.525V2.443H77.3408C78.0828 2.443 78.4748 2.149 78.4748 1.484C78.4748 0.819 78.0828 0.525 77.3408 0.525H75.5488ZM80.1425 4.76H79.6455V0.07H80.1425V2.184H81.7735L83.2505 0.07H83.8455L82.2005 2.387L83.8525 4.76H83.2575L81.7875 2.667H80.1425V4.76Z" fill="white"/>
</svg>
