<svg width="47" height="56" viewBox="0 0 47 56" fill="none" xmlns="http://www.w3.org/2000/svg">
<path d="M40.1195 6.86912C30.9415 -2.28575 16.0565 -2.29029 6.87282 6.85902C-2.29094 16.0183 -2.29094 30.8427 6.87282 40.002L22.5185 55.5961C22.7774 55.8551 23.1293 56.0005 23.4961 56C23.8629 56.0005 24.2149 55.8551 24.4738 55.5961L40.1195 40.002C49.2935 30.851 49.2935 16.0201 40.1195 6.86912ZM38.1641 38.0527L23.4961 52.6722L8.82819 38.0527C0.74204 29.9711 0.74204 16.8899 8.82819 8.80829C16.9272 0.743829 30.0484 0.743829 38.1474 8.80829C46.2529 16.8793 46.2604 29.9724 38.1641 38.0527ZM23.4924 11.0241C16.6191 11.0251 11.0481 16.5805 11.0491 23.4324C11.0501 30.2842 16.6228 35.8379 23.4961 35.8369C26.7957 35.8364 29.96 34.5298 32.2934 32.2041C37.1542 27.3597 37.1548 19.5044 32.2953 14.6588C29.9608 12.3311 26.7941 11.0236 23.4924 11.0241ZM30.3399 30.253C26.5102 33.8984 20.4821 33.8984 16.6524 30.253C14.8364 28.4432 13.8162 25.9882 13.8165 23.4285C13.817 18.0998 18.1508 13.7806 23.4961 13.7811C26.0646 13.7745 28.5289 14.7924 30.3399 16.6081L30.3435 16.6116C34.1212 20.3796 34.1197 26.487 30.3399 30.253Z" fill="url(#paint0_linear_18_15)"/>
<defs>
<linearGradient id="paint0_linear_18_15" x1="-0.417409" y1="28.5165" x2="47.4277" y2="27.7827" gradientUnits="userSpaceOnUse">
<stop stop-color="#29CCB9"/>
<stop offset="0.4948" stop-color="#0091FF"/>
<stop offset="1" stop-color="#FF66B7"/>
</linearGradient>
</defs>
</svg>
