<svg width="47" height="53" viewBox="0 0 47 53" fill="none" xmlns="http://www.w3.org/2000/svg">
<path d="M40.1208 43.4649C40.5116 43.4649 40.9025 43.4818 41.2933 43.4424C42.1996 43.3524 43.0379 43.133 43.8366 42.6943C45.264 41.9124 46.3629 40.5062 46.7764 38.9425C47.0936 37.7388 46.9803 36.4057 46.9803 35.1739V25.9661C46.9803 24.8186 46.6914 23.6655 46.074 22.6868C45.213 21.3256 43.8026 20.2682 42.2053 19.9363C41.0044 19.6888 39.5204 19.6775 38.3478 20.0488C36.8014 20.5381 35.4023 21.635 34.683 23.1031C34.2242 24.0368 34.0089 25.0042 34.0089 26.0448V37.0863C34.0089 37.8682 34.0769 38.6613 34.3601 39.3981C34.9435 40.9056 36.0368 42.2274 37.5491 42.8799C38.3705 43.2455 39.2088 43.4536 40.1208 43.4649C41.0101 43.4705 41.8597 42.683 41.8201 41.7774C41.7804 40.855 41.0724 40.0956 40.1208 40.09C39.9112 40.09 39.7073 40.0731 39.4977 40.045C39.6506 40.0675 39.7979 40.0844 39.9508 40.1069C39.5713 40.0506 39.2088 39.9494 38.8576 39.8031L39.2654 39.9719C39.0162 39.865 38.7727 39.7356 38.5461 39.5894C38.5347 39.5838 38.3648 39.4769 38.3648 39.46C38.3648 39.4656 38.7387 39.7694 38.5064 39.5669C38.4045 39.4769 38.3025 39.3925 38.2062 39.2969C38.1213 39.2125 38.0363 39.1225 37.957 39.0269C37.8607 38.9144 37.7701 38.7175 38.0363 39.1394C37.9966 39.0775 37.9513 39.0213 37.906 38.9594C37.7531 38.7344 37.6284 38.4925 37.5208 38.245L37.6908 38.65C37.5435 38.3013 37.4415 37.9413 37.3849 37.5644C37.4075 37.7163 37.4245 37.8626 37.4472 38.0144C37.3792 37.4913 37.4019 36.9513 37.4019 36.4226V27.1192C37.4019 26.5004 37.3622 25.8648 37.4472 25.2517C37.4245 25.4036 37.4075 25.5499 37.3849 25.7017C37.4415 25.3249 37.5435 24.9649 37.6908 24.6161L37.5208 25.0211C37.6284 24.7736 37.7587 24.5318 37.906 24.3068C37.9117 24.2955 38.0193 24.1268 38.0363 24.1268C38.0306 24.1268 37.7247 24.498 37.9287 24.2674C38.0193 24.1661 38.1043 24.0649 38.2006 23.9693C38.2855 23.8849 38.3761 23.8005 38.4724 23.7218C38.5857 23.6262 38.784 23.5362 38.3591 23.8005C38.4215 23.7612 38.4781 23.7162 38.5404 23.6712C38.767 23.5193 39.0106 23.3955 39.2598 23.2887L38.852 23.4574C39.2031 23.3112 39.5657 23.2099 39.9452 23.1537C39.7922 23.1762 39.645 23.1931 39.492 23.2156C40.1264 23.1312 40.8401 23.1312 41.4802 23.2156C41.3273 23.1931 41.18 23.1762 41.0271 23.1537C41.4066 23.2099 41.7691 23.3112 42.1203 23.4574L41.7125 23.2887C41.9617 23.3955 42.2053 23.5249 42.4318 23.6712C42.4432 23.6768 42.6131 23.7837 42.6131 23.8005C42.6131 23.7949 42.2393 23.4912 42.4715 23.6937C42.5734 23.7837 42.6754 23.868 42.7717 23.9637C42.8567 24.048 42.9416 24.138 43.0209 24.2336C43.1172 24.3461 43.2079 24.543 42.9416 24.1212C42.9813 24.183 43.0266 24.2393 43.0719 24.3011C43.2248 24.5261 43.3495 24.768 43.4571 25.0155L43.2872 24.6105C43.4344 24.9592 43.5364 25.3192 43.593 25.6961C43.5704 25.5442 43.5534 25.398 43.5307 25.2461C43.5987 25.7692 43.576 26.3092 43.576 26.8379V36.1414C43.576 36.7601 43.6157 37.3957 43.5307 38.0088C43.5534 37.8569 43.5704 37.7107 43.593 37.5588C43.5364 37.9357 43.4344 38.2957 43.2872 38.6444L43.4571 38.2394C43.3495 38.4869 43.2192 38.7288 43.0719 38.9538C43.0662 38.965 42.9586 39.1338 42.9416 39.1338C42.9473 39.1338 43.2532 38.7625 43.0493 38.9931C42.9586 39.0944 42.8737 39.1956 42.7774 39.2913C42.6924 39.3756 42.6018 39.46 42.5055 39.5388C42.3922 39.6344 42.1939 39.7244 42.6188 39.46C42.5565 39.4994 42.4998 39.5444 42.4375 39.5894C42.2109 39.7412 41.9674 39.865 41.7181 39.9719L42.126 39.8031C41.7748 39.9494 41.4123 40.0506 41.0327 40.1069C41.1857 40.0844 41.3329 40.0675 41.4859 40.045C41.0327 40.1069 40.5796 40.09 40.1208 40.09C39.2315 40.09 38.3818 40.8662 38.4215 41.7774C38.4611 42.6886 39.1635 43.4649 40.1208 43.4649ZM6.11186 43.4649C6.5027 43.4649 6.89355 43.4818 7.28439 43.4424C8.19069 43.3524 9.02901 43.133 9.82769 42.6943C11.2551 41.9124 12.354 40.5062 12.7675 38.9425C13.0847 37.7388 12.9714 36.4057 12.9714 35.1739V25.9661C12.9714 24.8186 12.6825 23.6655 12.0651 22.6868C11.2041 21.3256 9.79371 20.2682 8.19635 19.9363C6.9955 19.6888 5.51144 19.6775 4.33891 20.0488C2.79254 20.5381 1.39344 21.635 0.674061 23.1031C0.215246 24.0368 0 25.0042 0 26.0448V37.0863C0 37.8682 0.0679723 38.6613 0.351191 39.3981C0.934622 40.9056 2.02785 42.2274 3.54023 42.8799C4.36157 43.2455 5.1999 43.4536 6.11186 43.4649C7.00117 43.4705 7.85082 42.683 7.81117 41.7774C7.77152 40.855 7.06348 40.0956 6.11186 40.09C5.90228 40.09 5.69836 40.0731 5.48878 40.045C5.64172 40.0675 5.78899 40.0844 5.94193 40.1069C5.56242 40.0506 5.1999 39.9494 4.84871 39.8031L5.25654 39.9719C5.00731 39.865 4.76374 39.7356 4.53717 39.5894C4.52584 39.5838 4.35591 39.4769 4.35591 39.46C4.35591 39.4656 4.72975 39.7694 4.49751 39.5669C4.39556 39.4769 4.2936 39.3925 4.1973 39.2969C4.11234 39.2125 4.02737 39.1225 3.94807 39.0269C3.85178 38.9144 3.76115 38.7175 4.02737 39.1394C3.98772 39.0775 3.94241 39.0213 3.89709 38.9594C3.74415 38.7344 3.61954 38.4925 3.51191 38.245L3.68184 38.65C3.53457 38.3013 3.43261 37.9413 3.37597 37.5644C3.39863 37.7163 3.41562 37.8626 3.43828 38.0144C3.3703 37.4913 3.39296 36.9513 3.39296 36.4226V27.1192C3.39296 26.5004 3.35331 25.8648 3.43828 25.2517C3.41562 25.4036 3.39863 25.5499 3.37597 25.7017C3.43261 25.3249 3.53457 24.9649 3.68184 24.6161L3.51191 25.0211C3.61954 24.7736 3.74982 24.5318 3.89709 24.3068C3.90275 24.2955 4.01038 24.1268 4.02737 24.1268C4.02171 24.1268 3.71583 24.498 3.91975 24.2674C4.01038 24.1661 4.09534 24.0649 4.19164 23.9693C4.2766 23.8849 4.36723 23.8005 4.46353 23.7218C4.57682 23.6262 4.77507 23.5362 4.35024 23.8005C4.41255 23.7612 4.46919 23.7162 4.5315 23.6712C4.75808 23.5193 5.00164 23.3955 5.25088 23.2887L4.84304 23.4574C5.19423 23.3112 5.55675 23.2099 5.93627 23.1537C5.78333 23.1762 5.63605 23.1931 5.48312 23.2156C6.11753 23.1312 6.83124 23.1312 7.47131 23.2156C7.31837 23.1931 7.1711 23.1762 7.01816 23.1537C7.39768 23.2099 7.7602 23.3112 8.11139 23.4574L7.70355 23.2887C7.95278 23.3955 8.19635 23.5249 8.42293 23.6712C8.43426 23.6768 8.60419 23.7837 8.60419 23.8005C8.60419 23.7949 8.23034 23.4912 8.46258 23.6937C8.56454 23.7837 8.6665 23.868 8.76279 23.9637C8.84776 24.048 8.93272 24.138 9.01202 24.2336C9.10832 24.3461 9.19895 24.543 8.93272 24.1212C8.97237 24.183 9.01769 24.2393 9.063 24.3011C9.21594 24.5261 9.34056 24.768 9.44818 25.0155L9.27825 24.6105C9.42552 24.9592 9.52748 25.3192 9.58412 25.6961C9.56147 25.5442 9.54447 25.398 9.52182 25.2461C9.58979 25.7692 9.56713 26.3092 9.56713 26.8379V36.1414C9.56713 36.7601 9.60678 37.3957 9.52182 38.0088C9.54447 37.8569 9.56147 37.7107 9.58412 37.5588C9.52748 37.9357 9.42552 38.2957 9.27825 38.6444L9.44818 38.2394C9.34056 38.4869 9.21027 38.7288 9.063 38.9538C9.05734 38.965 8.94971 39.1338 8.93272 39.1338C8.93839 39.1338 9.24426 38.7625 9.04034 38.9931C8.94971 39.0944 8.86475 39.1956 8.76845 39.2913C8.68349 39.3756 8.59286 39.46 8.49656 39.5388C8.38328 39.6344 8.18502 39.7244 8.60985 39.46C8.54754 39.4994 8.4909 39.5444 8.42859 39.5894C8.20202 39.7412 7.95845 39.865 7.70922 39.9719L8.11705 39.8031C7.76586 39.9494 7.40334 40.0506 7.02383 40.1069C7.17676 40.0844 7.32404 40.0675 7.47698 40.045C7.02383 40.1069 6.57068 40.09 6.11186 40.09C5.22255 40.09 4.3729 40.8662 4.41255 41.7774C4.4522 42.6886 5.16025 43.4649 6.11186 43.4649Z" fill="url(#paint0_linear_18_32)"/>
<path d="M3.39296 37.0245V24.048C3.39296 22.8331 3.42695 21.6237 3.59121 20.4144C3.56856 20.5663 3.55156 20.7125 3.52891 20.8644C3.78947 18.9744 4.29926 17.1295 5.04696 15.3746L4.87703 15.7796C5.30752 14.7727 5.81731 13.794 6.39508 12.8603C6.6783 12.4047 6.97285 11.9659 7.29005 11.5328C7.36935 11.4203 7.45432 11.3135 7.53362 11.2066C7.56194 11.1672 7.59593 11.1278 7.62425 11.0885C7.80551 10.8466 7.35236 11.4316 7.53928 11.1953C7.70922 10.9816 7.87915 10.7678 8.06041 10.5654C8.75712 9.74413 9.52182 8.97354 10.3318 8.26481C10.5301 8.09606 10.7283 7.92732 10.9322 7.75858C11.0285 7.67983 11.1248 7.60108 11.2211 7.52796C11.3174 7.44921 11.561 7.27484 11.1135 7.60671C11.1758 7.56171 11.2325 7.51671 11.2948 7.47171C11.7309 7.14547 12.1841 6.83048 12.6486 6.53799C13.6851 5.87989 14.7727 5.31178 15.9056 4.83367L15.4977 5.00242C17.265 4.25994 19.1229 3.75371 21.0262 3.49497C20.8732 3.51747 20.726 3.53434 20.573 3.55684C22.5046 3.2981 24.4701 3.2981 26.4017 3.55684C26.2487 3.53434 26.1014 3.51747 25.9485 3.49497C27.8517 3.75371 29.7096 4.25994 31.4769 5.00242L31.0691 4.83367C32.083 5.26116 33.0686 5.76739 34.0089 6.34112C34.4677 6.62236 34.9095 6.91485 35.3457 7.22984C35.459 7.30859 35.5666 7.39296 35.6742 7.47171C35.7139 7.49983 35.7535 7.53358 35.7932 7.56171C36.0368 7.7417 35.4477 7.29172 35.6856 7.47734C35.9008 7.64608 36.1161 7.81482 36.32 7.99482C37.147 8.68667 37.923 9.44602 38.6367 10.2504C38.8066 10.4472 38.9766 10.6441 39.1465 10.8466C39.2258 10.9422 39.3051 11.0378 39.3787 11.1335C39.458 11.2291 39.6336 11.471 39.2994 11.0266C39.3448 11.0885 39.3901 11.1447 39.4354 11.2066C39.7639 11.6397 40.0811 12.0897 40.3757 12.5509C41.0384 13.5803 41.6105 14.6602 42.092 15.7852L41.922 15.3802C42.6697 17.1351 43.1795 18.9801 43.4401 20.87C43.4174 20.7181 43.4004 20.5719 43.3778 20.42C43.5477 21.68 43.576 22.9399 43.576 24.2055V38.4363C43.576 39.5163 43.6214 40.6187 43.4797 41.6931C43.5024 41.5412 43.5194 41.3949 43.5421 41.2431C43.4174 42.1205 43.1795 42.9811 42.8397 43.8024L43.0096 43.3974C42.749 44.0161 42.4262 44.6067 42.0523 45.1636C41.9617 45.2986 41.8654 45.4279 41.7748 45.5573C41.5652 45.8498 42.024 45.2536 41.8371 45.4786C41.7918 45.5348 41.7464 45.5967 41.6955 45.6529C41.4802 45.9117 41.2593 46.1535 41.0214 46.3898C40.7835 46.626 40.5343 46.851 40.2794 47.0591C40.2227 47.1041 40.1661 47.1548 40.1038 47.1997C39.8715 47.3854 40.438 46.9523 40.2114 47.1154C40.0698 47.2166 39.9282 47.3179 39.7866 47.4135C39.2258 47.7847 38.631 48.1053 38.008 48.3641L38.4158 48.1953C37.5888 48.5328 36.7278 48.7691 35.8385 48.8928C35.9914 48.8703 36.1387 48.8534 36.2917 48.8309C35.374 48.9547 34.4451 48.9266 33.5218 48.9266H29.1999C28.3106 48.9266 27.4609 49.7028 27.5005 50.614C27.5402 51.5309 28.2482 52.3015 29.1999 52.3015H33.4991C34.0372 52.3015 34.581 52.3127 35.1191 52.3015C36.5522 52.2677 37.9966 51.9921 39.3221 51.4521C42.0353 50.3384 44.3577 48.3416 45.6719 45.7092C46.5838 43.8924 46.986 41.9574 46.986 39.9381V23.3224C46.9803 20.6731 46.5328 17.9901 45.6152 15.4983C44.6466 12.8547 43.2362 10.4472 41.4179 8.28731C39.7073 6.25675 37.6115 4.51306 35.3174 3.17436C32.9667 1.80753 30.3497 0.828809 27.6648 0.36195C24.7703 -0.138658 21.8588 -0.121784 18.9757 0.423823C16.3191 0.924431 13.7248 1.9369 11.4081 3.32623C9.12531 4.69868 7.05215 6.45924 5.37549 8.5123C3.57989 10.706 2.19211 13.1415 1.25749 15.8133C0.419164 18.2207 0.00566438 20.7913 0 23.3337V37.0245C0 37.9076 0.781684 38.7513 1.69931 38.7119C2.61128 38.6669 3.39296 37.9694 3.39296 37.0245Z" fill="url(#paint1_linear_18_32)"/>
<defs>
<linearGradient id="paint0_linear_18_32" x1="-0.417409" y1="26.6356" x2="47.4261" y2="25.8501" gradientUnits="userSpaceOnUse">
<stop stop-color="#29CCB9"/>
<stop offset="0.4948" stop-color="#0091FF"/>
<stop offset="1" stop-color="#FF66B7"/>
</linearGradient>
<linearGradient id="paint1_linear_18_32" x1="-0.417409" y1="26.6356" x2="47.4261" y2="25.8501" gradientUnits="userSpaceOnUse">
<stop stop-color="#29CCB9"/>
<stop offset="0.4948" stop-color="#0091FF"/>
<stop offset="1" stop-color="#FF66B7"/>
</linearGradient>
</defs>
</svg>
