<svg width="100" height="100" viewBox="0 0 100 100" fill="none" xmlns="http://www.w3.org/2000/svg">
<path d="M45.4384 0.233126C44.4727 0.548469 43.0142 2.06606 42.7186 3.05151C42.0682 5.25891 42.9945 7.50573 44.9457 8.45176L45.8326 8.88536V19.1143C45.8326 29.087 45.8523 29.363 46.2268 29.7374C46.7589 30.2696 47.3108 30.2302 47.7838 29.6192C48.1977 29.1068 48.1977 28.9097 48.1977 18.9763V8.84594L48.8481 8.57002C49.9124 8.13642 50.9175 6.93417 51.2723 5.73193C52.2972 2.22373 48.9861 -0.890285 45.4384 0.233126ZM48.5327 3.0318C49.1831 3.68219 49.2226 3.80045 49.124 4.62822C48.9861 5.85018 48.3554 6.48087 47.1334 6.61883C46.3056 6.71737 46.1874 6.67796 45.537 6.02756C45.0048 5.49542 44.8472 5.18008 44.8472 4.60852C44.8472 3.20918 45.6552 2.36169 46.9954 2.34198C47.705 2.34198 47.9612 2.46024 48.5327 3.0318Z" fill="url(#paint0_linear_0_2405)"/>
<path d="M35.0715 5.08171C33.613 5.75182 32.4305 7.56504 32.4305 9.18117C32.4305 10.7579 33.5736 12.4923 35.0912 13.2018C36.0372 13.6354 37.6928 13.6945 38.6191 13.3003C39.2695 13.0244 39.3089 13.0441 39.9987 13.7537L40.7082 14.4829V21.5978C40.7082 25.7761 40.7871 28.9295 40.9053 29.2252C41.1813 29.9938 41.9499 30.2698 42.5806 29.8559L43.0733 29.5405V13.6945L40.9053 11.4871L41.201 10.6396C41.7528 9.04321 41.4769 7.56504 40.3338 6.26425C39.4469 5.21967 38.3432 4.70724 36.9635 4.70724C36.3329 4.70724 35.5445 4.86491 35.0715 5.08171ZM37.8504 7.15115C39.0527 7.66358 39.5454 9.4571 38.7373 10.482C37.9096 11.5265 36.1752 11.5857 35.2883 10.6199C34.4211 9.65419 34.835 7.68329 36.0372 7.17086C36.8453 6.8161 37.0227 6.8161 37.8504 7.15115Z" fill="url(#paint1_linear_0_2405)"/>
<path d="M55.5294 4.96343C53.3614 5.75179 52.1 8.23512 52.7898 10.4228L53.0658 11.3097L52.0015 12.4331L50.9569 13.5565V29.5405L51.4693 29.8756C51.9423 30.1712 52.0409 30.1712 52.5139 29.915L53.0263 29.6193L53.0855 22.1299L53.1249 14.6405L53.8738 13.9113L54.6228 13.1624L55.8644 13.4974C56.8893 13.7536 57.2835 13.7733 58.0324 13.5762C60.6143 12.9456 62.0925 10.4425 61.3829 7.91978C61.0479 6.71753 59.6288 5.21965 58.5251 4.92402C57.5594 4.64809 56.3572 4.6678 55.5294 4.96343ZM58.3675 7.42705C59.9048 8.66872 59.2938 11.0929 57.3623 11.3294C55.5294 11.5659 54.2877 9.65417 55.2337 8.05774C55.4111 7.7424 55.7462 7.40734 55.963 7.28909C56.6331 6.97375 57.9142 7.05258 58.3675 7.42705Z" fill="url(#paint2_linear_0_2405)"/>
<path d="M55.5491 19.8041C54.9972 20.6515 55.4703 21.2034 57.3623 21.9523C63.5115 24.3765 68.4388 28.8505 71.4542 34.7434C71.9667 35.788 72.5973 37.2268 72.8338 37.9363C73.3266 39.3948 73.839 39.8284 74.7062 39.4342C75.4946 39.0794 75.4946 38.4487 74.7062 36.4187C71.809 28.8505 65.5021 22.5436 58.0915 19.7646C56.4951 19.1537 55.9827 19.1537 55.5491 19.8041Z" fill="url(#paint3_linear_0_2405)"/>
<path d="M35.584 20.3562C28.6464 23.4505 22.9899 29.5209 20.3883 36.6555C19.7379 38.4688 19.7577 39.0797 20.5066 39.4345C21.3935 39.8287 21.8468 39.4148 22.4775 37.6804C24.1528 32.9305 27.3653 28.5354 31.4254 25.4805C32.3517 24.771 34.2832 23.6279 35.6825 22.9184C37.1015 22.2089 38.3038 21.519 38.3826 21.4008C38.6388 20.9869 38.56 20.4942 38.1461 20.0803C37.614 19.5481 37.3183 19.5876 35.584 20.3562Z" fill="url(#paint4_linear_0_2405)"/>
<path d="M44.4726 32.5756C44.3544 32.7136 44.1573 33.364 44.0193 33.9947C43.9011 34.6254 43.7237 35.2561 43.6449 35.3743C43.5463 35.4926 42.8368 35.8276 42.0879 36.1232L40.6885 36.6751L39.6242 35.9656C39.033 35.5714 38.4023 35.2561 38.2249 35.2561C37.7125 35.2561 34.4014 38.6066 34.4014 39.119C34.4014 39.3555 34.7167 40.0059 35.1109 40.5775L35.8204 41.6023L35.1503 43.1002L34.4605 44.5981L33.2188 44.8346C32.4305 44.9726 31.8786 45.1894 31.7012 45.4062C31.5239 45.6624 31.445 46.4705 31.445 48.1063C31.445 50.905 31.5633 51.1021 33.3568 51.3189L34.5393 51.4568L35.1503 52.9547L35.781 54.4723L35.0912 55.4972C34.7167 56.0687 34.4014 56.7191 34.4014 56.9556C34.4014 57.4286 37.3774 60.6018 37.9884 60.7989C38.2446 60.8777 38.7768 60.6609 39.5454 60.1879L40.7082 59.4784L41.9696 59.9711C42.6791 60.247 43.3295 60.4835 43.4478 60.4835C43.6646 60.4835 43.7434 60.72 44.0588 62.1588C44.177 62.6909 44.3741 63.2428 44.4924 63.3807C44.6303 63.5581 45.399 63.637 47.2319 63.637C50.0897 63.637 50.1882 63.5975 50.4445 61.9617C50.6416 60.7792 50.7598 60.4835 51.016 60.4835C51.154 60.4835 51.7847 60.2273 52.4548 59.912L53.657 59.3404L54.6622 60.1091C56.1798 61.2719 56.4951 61.1931 58.4069 59.2222C59.5106 58.0987 60.023 57.4286 60.023 57.1133C60.023 56.8571 59.7077 56.187 59.3332 55.6548L58.6434 54.6497L59.2938 53.1321L59.9245 51.6342L61.0873 51.3977C62.8808 51.0232 62.9794 50.8656 62.9794 48.0669C62.9794 45.2682 62.9005 45.1105 61.0479 44.7164C59.9048 44.4799 59.8259 44.4207 59.6091 43.7506C59.4909 43.3564 59.215 42.706 58.9982 42.2724L58.6237 41.5235L59.3135 40.4592C59.7077 39.8877 60.023 39.1978 60.023 38.9416C60.023 38.6263 59.4909 37.9562 58.2689 36.7736C57.3032 35.8276 56.3966 35.059 56.2586 35.059C56.1009 35.059 55.4702 35.4137 54.8199 35.8276L53.6767 36.5963L52.4548 36.0247C51.8044 35.7094 51.154 35.4531 51.016 35.4531C50.7598 35.4531 50.6416 35.1575 50.4445 33.975C50.1882 32.3391 50.0897 32.2997 47.2319 32.2997C45.3398 32.2997 44.65 32.3588 44.4726 32.5756ZM48.3947 35.4926C48.7495 37.0102 48.8677 37.1678 50.0109 37.5423C50.5824 37.7197 51.6664 38.173 52.4154 38.5475L53.7556 39.2176L54.9381 38.508L56.1206 37.7788L56.6922 38.3307C57.4017 39.0205 57.4017 39.2176 56.6725 40.2818C56.3572 40.7549 56.0812 41.287 56.0812 41.4447C56.0812 41.622 56.3374 42.233 56.6528 42.8046C56.9681 43.3564 57.382 44.3222 57.5594 44.9134C57.7565 45.5047 57.993 46.1157 58.0915 46.2339C58.2098 46.3719 58.8208 46.5887 59.4712 46.7267L60.634 46.9632L60.5157 49.1312L59.4909 49.348C58.1901 49.6436 57.9536 49.8407 57.6777 50.905C57.5594 51.3977 57.1455 52.3831 56.771 53.1124C56.3966 53.8416 56.0812 54.5511 56.0812 54.6694C56.0812 54.8073 56.3769 55.3789 56.7513 55.911L57.4214 56.8965L56.6922 57.5863L55.9827 58.2761L55.1155 57.606C54.1103 56.8177 53.6176 56.7782 52.4745 57.3695C52.0212 57.606 51.0357 58.0199 50.2671 58.3155C48.7889 58.8477 48.7495 58.9265 48.3159 60.9171C48.1976 61.4296 48.1188 61.469 47.2319 61.469H46.2465L46.0297 60.3259C45.8917 59.7149 45.7143 59.1039 45.5961 58.9659C45.4975 58.8477 44.8274 58.552 44.0982 58.3155C43.3689 58.079 42.4032 57.6849 41.9499 57.4089C40.8659 56.7782 40.3535 56.8177 39.3286 57.5469L38.5008 58.1579L37.8307 57.5075C37.4563 57.1527 37.1606 56.7782 37.1606 56.6994C37.1606 56.6009 37.4366 56.1673 37.7519 55.714C38.4614 54.7285 38.4811 54.354 37.8701 53.2898C37.6139 52.8562 37.2 51.9101 36.9635 51.2203C36.4511 49.683 36.3131 49.5056 35.5642 49.3677C33.6327 48.9932 33.8101 49.1115 33.8101 48.0669C33.8101 47.0223 33.8101 47.0223 35.3277 46.7858C36.3131 46.6281 36.4511 46.4705 36.7664 45.3076C36.8847 44.8149 37.2986 43.8689 37.6731 43.1791C38.0475 42.509 38.3432 41.7994 38.3432 41.6023C38.3432 41.425 38.0672 40.8731 37.7519 40.3804C37.4366 39.8877 37.1606 39.3949 37.1606 39.2767C37.1606 39.0402 38.1855 38.0153 38.422 38.0153C38.5008 38.0153 38.9541 38.2715 39.4272 38.6066C39.9002 38.9219 40.4717 39.1978 40.6885 39.1978C40.9053 39.1978 41.6937 38.9022 42.4229 38.5277C43.1522 38.1533 44.1376 37.7591 44.6106 37.6211C45.5566 37.3846 45.8523 36.9116 46.1282 35.2955L46.2662 34.4677H48.1582L48.3947 35.4926Z" fill="url(#paint5_linear_0_2405)"/>
<path d="M45.0639 42.1148C43.8026 42.6075 42.2258 44.1054 41.674 45.347C40.9842 46.904 41.0039 49.1706 41.7528 50.5699C43.093 53.1321 45.6552 54.4329 48.3948 53.9401C50.4445 53.5657 51.9818 52.3634 52.9081 50.4319C53.5782 49.0129 53.6176 46.8646 52.9869 45.485C52.4351 44.2236 51.2723 43.0214 50.0897 42.4104C48.7692 41.7403 46.3844 41.5826 45.0639 42.1148ZM49.2028 44.5193C50.7992 45.347 51.5679 47.5347 50.8781 49.348C49.9518 51.7524 46.818 52.5605 44.8471 50.8853C43.4675 49.7224 43.0733 47.7318 43.9208 46.096C44.9063 44.1448 47.1531 43.4747 49.2028 44.5193Z" fill="url(#paint6_linear_0_2405)"/>
<path d="M7.49872 33.6005C4.46354 34.7042 3.65547 38.8431 6.04026 41.1096C7.26221 42.2527 8.95718 42.6075 10.5733 42.0556L11.4208 41.76L13.6282 43.928H21.1373C29.2771 43.928 29.1392 43.9477 29.1392 42.844C29.1392 41.7403 29.2377 41.76 21.63 41.76H14.6137L13.7859 40.9519C12.9581 40.1439 12.9581 40.1241 13.234 39.4738C13.3917 39.119 13.51 38.3503 13.51 37.7788C13.4902 34.6648 10.4156 32.5362 7.49872 33.6005ZM10.2777 36.0247C12.15 37.1678 11.1843 39.9862 8.95718 39.9862C7.53814 39.9862 6.55269 38.5277 7.00599 37.1284C7.4593 35.7488 8.97689 35.2363 10.2777 36.0247Z" fill="url(#paint7_linear_0_2405)"/>
<path d="M84.1074 33.7976C81.9788 34.8619 81.0919 37.1875 81.9394 39.4541C82.1365 39.9665 82.0774 40.0848 81.289 40.8928L80.4415 41.76H65.1474L64.832 42.2527C64.4182 42.8834 64.6941 43.6521 65.4627 43.928C65.7584 44.0463 69.1089 44.1251 73.6617 44.1251H81.3481L82.5701 42.9426L83.7921 41.7797L84.6592 42.0754C86.2557 42.6469 88.0886 42.233 89.2711 41.0505C90.4537 39.8482 90.907 38.2715 90.5128 36.7145C89.7836 33.8764 86.7287 32.4771 84.1074 33.7976ZM87.0835 35.867C87.8521 36.2612 88.2069 36.8722 88.1872 37.8182C88.1872 38.7643 88.0098 39.119 87.2214 39.6512C86.3148 40.2818 84.7775 39.9271 84.3242 38.9613C83.93 38.1336 83.8906 37.8576 84.0877 37.1284C84.4227 35.9459 85.96 35.2955 87.0835 35.867Z" fill="url(#paint8_linear_0_2405)"/>
<path d="M3.16272 43.5731C1.96047 43.9082 0.423171 45.544 0.127537 46.8448C-0.365187 48.8945 0.600552 50.9443 2.49261 51.8903C4.32555 52.7969 6.13877 52.4816 7.63665 51.0034C8.14908 50.491 8.6221 49.8406 8.70093 49.5646L8.81919 49.0522H18.6145C23.9951 49.0522 28.4887 48.9734 28.607 48.8945C29.3165 48.4215 29.2771 47.2981 28.5084 46.9039C28.2522 46.766 24.9214 46.6871 18.4766 46.6871H8.8389L8.48414 45.8791C7.63665 44.0264 5.27157 43.0016 3.16272 43.5731ZM5.94168 46.3718C6.51324 46.9434 6.61178 47.1799 6.61178 47.9288C6.61178 48.658 6.51324 48.934 6.00081 49.4267C4.20729 51.2399 1.31007 48.8945 2.66999 46.7266C3.43864 45.5046 4.89711 45.3272 5.94168 46.3718Z" fill="url(#paint9_linear_0_2405)"/>
<path d="M89.2318 43.5734C88.3252 43.8887 86.8864 45.2093 86.5908 45.9976L86.3543 46.6874H65.3642L64.97 47.1999C64.4576 47.8503 64.4576 48.1656 64.9503 48.6583C65.3445 49.0525 65.6007 49.0525 75.8691 49.0525H86.3937L86.5119 49.5452C86.6893 50.2745 87.9901 51.6147 88.8967 52.0285C90.3749 52.6987 92.3458 52.4227 93.6269 51.3782C94.6911 50.4913 95.1839 49.3876 95.2036 47.8503C95.2036 46.7465 95.1247 46.4115 94.6123 45.5837C93.8042 44.2829 92.5429 43.5143 91.0253 43.4354C90.3946 43.396 89.5865 43.4552 89.2318 43.5734ZM91.8925 46.0962C92.7203 46.5889 93.1144 47.7714 92.74 48.6583C92.3852 49.5255 91.6363 50.0379 90.7296 50.0379C90.099 50.0379 89.8033 49.9 89.2712 49.3678C88.739 48.8357 88.6011 48.5401 88.6011 47.9094C88.6011 46.1553 90.3749 45.1698 91.8925 46.0962Z" fill="url(#paint10_linear_0_2405)"/>
<path d="M11.401 53.9796L10.2579 53.7037C7.32126 52.9351 4.64084 54.9848 4.64084 58.02C4.64084 62.4939 10.5535 64.1298 12.8792 60.2865C13.3916 59.4193 13.5099 59.0054 13.5099 58.0988C13.5099 57.4878 13.4113 56.6995 13.2931 56.3644C13.0763 55.7534 13.1157 55.6746 13.8055 54.9651L14.5545 54.1964L21.5117 54.1373C29.1588 54.0782 29.1391 54.0782 29.1391 52.8759C29.1391 51.8314 29.0405 51.8117 21.0387 51.8117H13.6873L11.401 53.9796ZM10.0608 56.0688C10.7112 56.3841 11.3419 57.3499 11.3419 58.0594C11.3419 58.7098 10.5732 59.7149 9.8243 60.0106C9.21332 60.2668 9.01623 60.2865 8.40526 60.05C7.65631 59.7544 6.80883 58.7098 6.80883 58.0791C6.80883 57.3696 7.41981 56.3841 8.05049 56.0688C8.85856 55.6746 9.25274 55.6746 10.0608 56.0688Z" fill="url(#paint11_linear_0_2405)"/>
<path d="M64.8714 52.2452C64.4378 52.8562 64.4772 53.1321 65.0488 53.6839L65.5218 54.1767H80.6386L81.3875 54.9453C82.0773 55.6548 82.1365 55.7731 81.9394 56.2855C81.5452 57.3104 81.5058 57.9016 81.7226 58.9068C82.1759 61.0157 83.9497 62.4544 86.098 62.4544C88.7784 62.4544 90.631 60.5821 90.6113 57.9017C90.6113 54.9059 87.655 52.7576 84.8366 53.6642L83.8117 53.9993L81.5846 51.8116H65.1671L64.8714 52.2452ZM87.5564 56.3841C88.9952 57.744 88.1083 60.0893 86.1571 60.0893C84.2256 60.0893 83.2993 57.9411 84.6001 56.4826C85.3687 55.6351 86.7089 55.5957 87.5564 56.3841Z" fill="url(#paint12_linear_0_2405)"/>
<path d="M21.5905 56.2855C21.1767 56.4432 20.8022 56.9556 20.8022 57.3892C20.8022 57.5863 21.157 58.5323 21.5905 59.4587C23.0293 62.4938 24.2907 64.2874 27.385 67.5393C30.3807 70.7125 31.3859 72.3483 32.3516 75.6003C32.7852 77.0785 32.8838 77.8668 33.002 80.9808C33.14 85.0212 33.1794 85.1986 34.4999 86.2431C35.17 86.795 35.1897 86.8147 35.1897 88.2732C35.1897 89.3966 35.308 89.9878 35.6627 90.7368C36.1555 91.8208 37.2986 92.9639 38.3037 93.3778L38.9344 93.634V95.2501C38.9344 97.3196 39.506 98.6401 40.7279 99.4481L41.5754 100H53.6373L54.4848 99.4481C55.7265 98.6204 56.2783 97.3196 56.2783 95.2304V93.6143L56.9878 93.2792C57.9142 92.8456 58.9193 91.8011 59.4318 90.7565C59.7274 90.1258 59.8259 89.5345 59.8259 88.3126C59.8259 86.7359 59.8259 86.6964 60.4172 86.4008C60.7325 86.2431 61.2056 85.7307 61.4815 85.2577C61.9151 84.489 61.9545 84.1737 62.053 81.0794C62.2304 75.0287 63.3735 72.2892 67.5715 67.7955C69.9169 65.2728 71.3951 63.3413 72.6565 61.1536C74.5485 57.8819 74.785 56.7585 73.701 56.3446C72.893 56.0293 72.5382 56.4038 71.336 58.7294C69.9958 61.3507 68.4387 63.4793 66.0934 65.9429C63.0582 69.1358 61.5012 71.6585 60.496 74.9696C60.0427 76.5069 59.9639 77.2361 59.8456 80.3304C59.7471 83.405 59.6683 83.9766 59.3726 84.2722C59.0376 84.6073 58.2689 84.627 47.7443 84.6664C38.9147 84.7058 36.3723 84.6664 35.9781 84.4693C35.4854 84.2328 35.4854 84.1737 35.3474 80.8626C35.17 76.9011 34.6576 74.536 33.4159 71.9344C32.3319 69.6876 31.2479 68.2291 28.6858 65.529C26.2222 62.9274 24.8622 61.0157 23.6206 58.3747C22.8913 56.8571 22.3001 56.0687 21.9453 56.1673C21.9059 56.1673 21.7482 56.2264 21.5905 56.2855ZM57.6185 88.2929C57.5003 89.8499 57.1455 90.4806 56.0615 91.131C55.4308 91.5054 55.0367 91.5251 47.5078 91.5251C39.9396 91.5251 39.6045 91.5054 38.9344 91.131C38.0672 90.6185 37.5745 89.7513 37.4168 88.5097C37.2198 86.7359 36.2737 86.8935 47.6261 86.8935H57.7171L57.6185 88.2929ZM53.9132 95.2501C53.9132 96.413 53.8344 96.7874 53.4994 97.221L53.1052 97.7335H47.6458C42.3441 97.7335 42.2061 97.7137 41.7528 97.2999C41.3586 96.9254 41.2995 96.6889 41.2995 95.329V93.7917H53.9132V95.2501Z" fill="url(#paint13_linear_0_2405)"/>
<defs>
<linearGradient id="paint0_linear_0_2405" x1="-0.845508" y1="50.9222" x2="96.0634" y2="49.2364" gradientUnits="userSpaceOnUse">
<stop stop-color="#29CCB9"/>
<stop offset="0.4948" stop-color="#0091FF"/>
<stop offset="1" stop-color="#FF66B7"/>
</linearGradient>
<linearGradient id="paint1_linear_0_2405" x1="-0.845508" y1="50.9222" x2="96.0634" y2="49.2364" gradientUnits="userSpaceOnUse">
<stop stop-color="#29CCB9"/>
<stop offset="0.4948" stop-color="#0091FF"/>
<stop offset="1" stop-color="#FF66B7"/>
</linearGradient>
<linearGradient id="paint2_linear_0_2405" x1="-0.845508" y1="50.9222" x2="96.0634" y2="49.2364" gradientUnits="userSpaceOnUse">
<stop stop-color="#29CCB9"/>
<stop offset="0.4948" stop-color="#0091FF"/>
<stop offset="1" stop-color="#FF66B7"/>
</linearGradient>
<linearGradient id="paint3_linear_0_2405" x1="-0.845508" y1="50.9222" x2="96.0634" y2="49.2364" gradientUnits="userSpaceOnUse">
<stop stop-color="#29CCB9"/>
<stop offset="0.4948" stop-color="#0091FF"/>
<stop offset="1" stop-color="#FF66B7"/>
</linearGradient>
<linearGradient id="paint4_linear_0_2405" x1="-0.845508" y1="50.9222" x2="96.0634" y2="49.2364" gradientUnits="userSpaceOnUse">
<stop stop-color="#29CCB9"/>
<stop offset="0.4948" stop-color="#0091FF"/>
<stop offset="1" stop-color="#FF66B7"/>
</linearGradient>
<linearGradient id="paint5_linear_0_2405" x1="-0.845508" y1="50.9222" x2="96.0634" y2="49.2364" gradientUnits="userSpaceOnUse">
<stop stop-color="#29CCB9"/>
<stop offset="0.4948" stop-color="#0091FF"/>
<stop offset="1" stop-color="#FF66B7"/>
</linearGradient>
<linearGradient id="paint6_linear_0_2405" x1="-0.845508" y1="50.9222" x2="96.0634" y2="49.2364" gradientUnits="userSpaceOnUse">
<stop stop-color="#29CCB9"/>
<stop offset="0.4948" stop-color="#0091FF"/>
<stop offset="1" stop-color="#FF66B7"/>
</linearGradient>
<linearGradient id="paint7_linear_0_2405" x1="-0.845508" y1="50.9222" x2="96.0634" y2="49.2364" gradientUnits="userSpaceOnUse">
<stop stop-color="#29CCB9"/>
<stop offset="0.4948" stop-color="#0091FF"/>
<stop offset="1" stop-color="#FF66B7"/>
</linearGradient>
<linearGradient id="paint8_linear_0_2405" x1="-0.845508" y1="50.9222" x2="96.0634" y2="49.2364" gradientUnits="userSpaceOnUse">
<stop stop-color="#29CCB9"/>
<stop offset="0.4948" stop-color="#0091FF"/>
<stop offset="1" stop-color="#FF66B7"/>
</linearGradient>
<linearGradient id="paint9_linear_0_2405" x1="-0.845508" y1="50.9222" x2="96.0634" y2="49.2364" gradientUnits="userSpaceOnUse">
<stop stop-color="#29CCB9"/>
<stop offset="0.4948" stop-color="#0091FF"/>
<stop offset="1" stop-color="#FF66B7"/>
</linearGradient>
<linearGradient id="paint10_linear_0_2405" x1="-0.845508" y1="50.9222" x2="96.0634" y2="49.2364" gradientUnits="userSpaceOnUse">
<stop stop-color="#29CCB9"/>
<stop offset="0.4948" stop-color="#0091FF"/>
<stop offset="1" stop-color="#FF66B7"/>
</linearGradient>
<linearGradient id="paint11_linear_0_2405" x1="-0.845508" y1="50.9222" x2="96.0634" y2="49.2364" gradientUnits="userSpaceOnUse">
<stop stop-color="#29CCB9"/>
<stop offset="0.4948" stop-color="#0091FF"/>
<stop offset="1" stop-color="#FF66B7"/>
</linearGradient>
<linearGradient id="paint12_linear_0_2405" x1="-0.845508" y1="50.9222" x2="96.0634" y2="49.2364" gradientUnits="userSpaceOnUse">
<stop stop-color="#29CCB9"/>
<stop offset="0.4948" stop-color="#0091FF"/>
<stop offset="1" stop-color="#FF66B7"/>
</linearGradient>
<linearGradient id="paint13_linear_0_2405" x1="-0.845508" y1="50.9222" x2="96.0634" y2="49.2364" gradientUnits="userSpaceOnUse">
<stop stop-color="#29CCB9"/>
<stop offset="0.4948" stop-color="#0091FF"/>
<stop offset="1" stop-color="#FF66B7"/>
</linearGradient>
</defs>
</svg>
