<svg width="100" height="100" viewBox="0 0 100 100" fill="none" xmlns="http://www.w3.org/2000/svg">
<g clip-path="url(#clip0_0_2411)">
<path d="M69.7072 0.544498C68.1446 1.34534 67.5 2.38057 67.4219 4.15804C67.3438 5.95505 67.8516 7.04888 69.1798 7.90832L70.0979 8.4943V12.9477L70.1174 17.3817L69.1017 16.8738C68.5353 16.5808 67.1875 15.8581 66.1132 15.2331C63.0271 13.4556 61.4449 12.7134 59.0033 11.9125C55.8976 10.8773 53.4365 10.4866 49.9988 10.4866C44.1585 10.4866 39.9394 11.7367 33.7866 15.2917C29.3918 17.8309 24.7625 19.8037 20.4263 20.9757C17.7698 21.7179 17.1253 22.1476 16.9299 23.3782C16.8518 23.7884 16.7932 26.0346 16.7932 28.359V32.6172H8.66762L8.00351 31.6015C7.02688 30.1365 5.99165 29.6287 4.15558 29.7263C2.3781 29.8044 1.34287 30.449 0.542032 32.0116C-0.180677 33.3985 -0.180677 34.5704 0.542032 35.9572C1.34287 37.5199 2.3781 38.1644 4.15558 38.2426C5.95258 38.3207 7.04641 37.8128 7.90585 36.4846L8.49183 35.5666H12.6523L16.7932 35.5471V43.9461H14.9767C13.2383 43.9461 13.1406 43.9266 12.9257 43.4773C12.1835 41.8366 10.5428 40.9185 8.55043 41.0553C5.75726 41.2311 3.96025 43.8094 4.76109 46.5244C5.308 48.4582 6.87062 49.6106 8.92155 49.6106C10.4256 49.6106 11.578 49.0246 12.496 47.794L13.1797 46.876H16.7151L16.9299 51.3099C17.1839 56.0759 17.5159 58.1268 18.5707 61.506C19.6255 64.7679 22.4382 70.0418 23.3367 70.3738C23.9422 70.6277 24.4305 70.5106 24.8993 70.0222C25.6025 69.3386 25.5048 68.7526 24.4891 67.1705C22.653 64.3382 21.149 60.5879 20.3872 56.9353C20.0356 55.2946 20.0161 54.1031 20.0161 39.6685V24.179L22.2624 23.5345C26.4033 22.3234 31.0911 20.253 35.7204 17.577C40.9551 14.5494 44.8226 13.4165 49.9988 13.4165C55.3703 13.4165 58.7103 14.4322 64.8436 17.87C69.844 20.6827 75.3522 23.0071 79.2978 23.9837L79.9814 24.14L80.0791 30.9764C80.1572 35.9963 80.2353 37.9105 80.4307 38.223C80.7237 38.7309 81.4268 38.9653 82.1495 38.7895C83.1262 38.5356 83.2043 37.9496 83.2043 30.7225C83.2043 27.0894 83.1457 23.7884 83.0676 23.3782C82.8723 22.1476 82.2277 21.7179 79.5908 20.9952C78.3016 20.6436 76.3483 20.0186 75.2545 19.6084L73.2426 18.8661L73.2622 13.69V8.4943L74.1802 7.90832C75.5084 7.04888 76.0163 5.95505 75.9382 4.15804C75.86 2.36104 75.1959 1.32581 73.6528 0.524966C72.2269 -0.178211 71.0941 -0.178211 69.7072 0.544498ZM72.6176 3.31814C73.5356 4.17758 72.9106 5.85739 71.68 5.85739C70.9378 5.85739 70.3127 5.19328 70.3127 4.39244C70.3127 3.5916 70.9378 2.92748 71.68 2.92748C71.9535 2.92748 72.3832 3.10328 72.6176 3.31814ZM5.46427 33.0469C6.30417 33.9649 5.65959 35.3517 4.38997 35.3517C3.58913 35.3517 2.92502 34.7267 2.92502 33.9844C2.92502 32.7539 4.60483 32.1288 5.46427 33.0469ZM9.95678 44.3368C10.8358 45.2157 10.1716 46.6807 8.90202 46.6807C8.17931 46.6807 7.41753 45.9775 7.41753 45.3134C7.41753 45.1181 7.59333 44.7469 7.82772 44.454C8.33557 43.8094 9.3708 43.7508 9.95678 44.3368Z" fill="url(#paint0_linear_0_2411)"/>
<path d="M46.6782 16.5418C45.3109 16.7567 43.4358 17.245 42.1467 17.6943C40.3692 18.3388 37.7713 19.6671 37.283 20.1944C36.5798 20.9367 36.8924 22.0891 37.8885 22.4212C38.4159 22.6165 38.6503 22.5579 39.7832 21.9524C43.3967 20.0772 46.268 19.335 49.9988 19.335C54.003 19.335 57.2063 20.2335 60.8004 22.343C64.9999 24.8041 69.0431 26.7379 72.7153 28.027L74.2193 28.5739V41.0163C74.2193 54.4743 74.1607 55.3337 73.1059 58.5957C71.8559 62.5022 69.8635 65.5298 66.1328 69.241C62.109 73.2452 58.222 76.0774 53.0068 78.7534L50.0183 80.2965L47.6549 79.105C41.7169 76.136 36.3454 72.1318 32.3998 67.7565C28.7863 63.7523 27.087 60.4708 26.1494 55.6267C25.8173 53.8492 25.7783 52.6773 25.7783 41.153V28.613L27.3018 28.0466C28.1222 27.7536 30.0169 26.9723 31.5209 26.3082C33.8453 25.2925 34.2555 25.0385 34.5094 24.4916C34.7633 23.9642 34.7633 23.808 34.5484 23.3197C34.3922 23.0071 34.0211 22.6751 33.7281 22.5774C33.1226 22.3626 33.2984 22.304 29.8411 23.8275C28.5714 24.3744 26.6377 25.1557 25.5634 25.5464C22.4382 26.6793 22.7507 25.019 22.7507 40.4889C22.7702 52.3062 22.8093 53.8102 23.1218 55.5681C23.7859 59.2403 25.1532 62.8538 26.9502 65.6274C29.3527 69.3387 34.4898 74.2804 39.5488 77.7768C43.0452 80.1988 48.8854 83.2068 50.0769 83.2068C50.8192 83.2068 55.7805 80.7653 58.5932 79.0073C64.199 75.511 70.3128 69.8465 73.0473 65.6274C74.8248 62.8538 76.2116 59.2403 76.8953 55.4704C77.1883 53.8297 77.2273 52.1108 77.2469 40.528V27.4411L76.8171 26.8355C76.4656 26.3472 75.9968 26.0933 74.5709 25.5855C70.9378 24.3354 67.4024 22.6946 63.3787 20.4093C59.1987 18.0458 57.1477 17.2255 54.1202 16.6981C52.6162 16.4246 47.9479 16.327 46.6782 16.5418Z" fill="url(#paint1_linear_0_2411)"/>
<path d="M47.4009 34.7657C45.5258 35.4884 43.8655 37.1683 43.1623 39.0434C42.9279 39.6294 42.7326 40.8209 42.6545 42.071L42.5177 44.1414H41.795C40.9356 44.1414 39.9394 44.7665 39.3144 45.665C38.7284 46.5635 38.6307 47.8722 38.7089 54.3961C38.7675 59.2988 38.8065 60.1387 39.0995 60.6661C39.5097 61.4278 40.4864 62.2677 41.17 62.4631C41.8536 62.6389 58.1439 62.6389 58.8275 62.4631C59.5112 62.2677 60.4878 61.4278 60.898 60.6661C61.191 60.1387 61.2301 59.2988 61.2887 54.3961C61.3668 47.8722 61.2691 46.5635 60.6831 45.665C60.0581 44.7665 59.0619 44.1414 58.2025 44.1414H57.4798L57.3431 42.071C57.2649 40.8209 57.0696 39.6294 56.8352 39.0434C56.132 37.1487 54.4522 35.4689 52.538 34.7462C51.2098 34.2383 48.7096 34.2579 47.4009 34.7657ZM51.913 37.6761C52.3036 37.891 52.8701 38.3011 53.1435 38.6137C54.1006 39.6294 54.296 40.2739 54.296 42.2858V44.1414H45.7016V42.2858C45.7016 40.8209 45.7797 40.2544 46.0727 39.688C46.5024 38.8676 47.2837 38.0863 48.1432 37.637C48.9831 37.1878 50.9949 37.2073 51.913 37.6761ZM58.2025 53.3022C58.2025 58.8105 58.1634 59.5527 57.89 59.6504C57.4993 59.8066 42.4982 59.8066 42.1076 59.6504C41.8341 59.5527 41.795 58.8105 41.795 53.3022V47.0713H58.2025V53.3022Z" fill="url(#paint2_linear_0_2411)"/>
<path d="M48.0259 48.009C46.4633 48.8099 45.8188 49.8451 45.7406 51.6226C45.6625 53.4196 46.1703 54.5134 47.4986 55.3729C48.3385 55.9198 48.4166 56.0174 48.4166 56.7792C48.4361 58.2832 49.0221 59.1622 49.9987 59.1622C50.9754 59.1622 51.5614 58.2832 51.5809 56.7792C51.5809 56.0174 51.659 55.9198 52.4989 55.3729C53.8272 54.5134 54.335 53.4196 54.2569 51.6226C54.1787 49.8256 53.5146 48.7903 51.9715 47.9895C50.5457 47.2863 49.4128 47.2863 48.0259 48.009ZM50.9363 50.7827C51.8544 51.6421 51.2293 53.3219 49.9987 53.3219C49.2565 53.3219 48.6315 52.6578 48.6315 51.857C48.6315 51.0561 49.2565 50.392 49.9987 50.392C50.2722 50.392 50.7019 50.5678 50.9363 50.7827Z" fill="url(#paint3_linear_0_2411)"/>
<path d="M80.7237 42.6569L80.1768 43.1257L80.0596 49.3566C79.9228 55.9782 79.7666 57.2283 78.536 60.9395C77.8524 62.9709 76.114 66.3696 74.7662 68.2643C73.145 70.5691 67.7344 75.9992 64.8436 78.2064C61.0152 81.1363 55.7023 84.2029 51.327 86.039L49.9988 86.5859L48.4948 85.9609C45.7406 84.8084 41.0723 82.3083 38.5331 80.6089C35.3688 78.4799 33.2983 76.8196 30.5247 74.1631C28.4542 72.1708 28.2784 72.0536 27.5948 72.1122C26.6963 72.1903 26.0517 72.9521 26.247 73.753C26.4033 74.3389 29.3723 77.3079 31.5795 79.0658L32.9858 80.1792V91.5082L32.0678 92.0941C30.7395 92.9536 30.2317 94.0474 30.3098 95.8444C30.388 97.6219 31.0325 98.6571 32.5952 99.458C33.982 100.181 35.1149 100.181 36.5408 99.458C38.0838 98.6767 38.7479 97.6414 38.8261 95.8444C38.9042 94.0474 38.3964 92.9536 37.0681 92.0941L36.1501 91.5082V87.0352L36.1306 82.5817L36.6775 82.9333C41.3849 86.039 48.3776 89.4572 49.9988 89.4572C51.4051 89.4572 57.3821 86.6445 61.6988 83.9685C67.6563 80.2573 73.731 74.7296 77.2859 69.7878C78.829 67.6392 80.4502 64.3577 81.2901 61.7794L81.9347 59.7871L84.3763 59.7676H86.8179L87.5015 60.6856C88.4 61.9162 89.5524 62.5021 91.076 62.5021C94.0254 62.5021 96.0568 59.8066 95.256 57.0135C94.6895 55.0602 93.1269 53.9078 91.076 53.9078C89.2595 53.9273 87.7554 54.8453 87.0523 56.3884C86.8569 56.8181 86.7593 56.8377 84.7083 56.8377H82.5793L82.716 56.1345C82.8527 55.4118 83.1848 50.47 83.2043 49.1613V48.4386L87.3648 48.4581H91.5057L92.0917 49.3762C92.9511 50.7044 94.045 51.2122 95.842 51.1341C97.0139 51.0755 97.3655 50.9779 98.0687 50.4895C99.1625 49.7082 100.002 48.1456 100.002 46.876C100.002 45.6064 99.1625 44.0438 98.0687 43.2624C97.3655 42.7741 97.0139 42.6765 95.842 42.6179C94.0059 42.5202 92.9707 43.0281 91.994 44.493L91.3299 45.5087H83.2629L83.1457 44.2977C83.0481 43.3015 82.9504 42.989 82.5207 42.6374C81.8761 42.071 81.4073 42.071 80.7237 42.6569ZM96.6819 45.9384C97.5218 46.8565 96.8772 48.2433 95.6076 48.2433C94.8067 48.2433 94.1426 47.6182 94.1426 46.876C94.1426 45.6454 95.8224 45.0204 96.6819 45.9384ZM92.1698 57.3455C92.4042 57.6385 92.58 58.0096 92.58 58.2049C92.58 58.4003 92.4042 58.7714 92.1698 59.0644C91.369 60.0801 89.6501 59.5136 89.6501 58.2049C89.6501 56.8963 91.369 56.3298 92.1698 57.3455ZM35.5055 94.5357C36.4236 95.3952 35.7985 97.075 34.568 97.075C33.8257 97.075 33.2007 96.4109 33.2007 95.61C33.2007 94.8092 33.8257 94.1451 34.568 94.1451C34.8414 94.1451 35.2711 94.3209 35.5055 94.5357Z" fill="url(#paint4_linear_0_2411)"/>
</g>
<defs>
<linearGradient id="paint0_linear_0_2411" x1="-0.888127" y1="50.9223" x2="100.902" y2="49.0622" gradientUnits="userSpaceOnUse">
<stop stop-color="#29CCB9"/>
<stop offset="0.4948" stop-color="#0091FF"/>
<stop offset="1" stop-color="#FF66B7"/>
</linearGradient>
<linearGradient id="paint1_linear_0_2411" x1="-0.888127" y1="50.9223" x2="100.902" y2="49.0622" gradientUnits="userSpaceOnUse">
<stop stop-color="#29CCB9"/>
<stop offset="0.4948" stop-color="#0091FF"/>
<stop offset="1" stop-color="#FF66B7"/>
</linearGradient>
<linearGradient id="paint2_linear_0_2411" x1="-0.888127" y1="50.9223" x2="100.902" y2="49.0622" gradientUnits="userSpaceOnUse">
<stop stop-color="#29CCB9"/>
<stop offset="0.4948" stop-color="#0091FF"/>
<stop offset="1" stop-color="#FF66B7"/>
</linearGradient>
<linearGradient id="paint3_linear_0_2411" x1="-0.888127" y1="50.9223" x2="100.902" y2="49.0622" gradientUnits="userSpaceOnUse">
<stop stop-color="#29CCB9"/>
<stop offset="0.4948" stop-color="#0091FF"/>
<stop offset="1" stop-color="#FF66B7"/>
</linearGradient>
<linearGradient id="paint4_linear_0_2411" x1="-0.888127" y1="50.9223" x2="100.902" y2="49.0622" gradientUnits="userSpaceOnUse">
<stop stop-color="#29CCB9"/>
<stop offset="0.4948" stop-color="#0091FF"/>
<stop offset="1" stop-color="#FF66B7"/>
</linearGradient>
<clipPath id="clip0_0_2411">
<rect width="100" height="100" fill="white"/>
</clipPath>
</defs>
</svg>
