<svg width="49" height="73" viewBox="0 0 49 73" fill="none" xmlns="http://www.w3.org/2000/svg">
<path d="M29.3245 41.7478V23.8435M29.3245 23.8435C29.3245 23.8435 32.7483 23.9978 33.5265 22.763C34.149 21.837 34.3046 20.7565 33.5265 19.9848C32.5927 19.213 31.1921 19.213 30.4139 19.9848C29.947 20.6022 29.3245 21.5283 29.3245 22.4543V23.8435ZM29.3245 23.8435H24.5V41.7478M24.5 22.4543V22.3M24.5 22.4543V23.6891C24.5 23.6891 21.0762 23.5348 20.298 22.6087C19.5199 21.6826 19.5199 20.4478 20.298 19.6761C21.0762 18.9043 22.4768 18.9043 23.4106 19.6761C23.8775 20.4478 24.5 21.6826 24.5 22.4543ZM44.8874 28.0109C46.9106 31.2522 48 34.9565 48 38.9696C48 41.4391 47.5331 43.7543 46.4437 46.0696L43.3311 52.8609C40.6854 58.263 39.596 64.1283 39.596 69.9935V72M8.62583 28.937C7.22517 31.5609 6.29139 34.4935 5.98013 37.7348L5.8245 40.513C5.8245 40.9761 5.51325 41.5935 5.35762 41.9022L1.46689 47.4587C1.15563 47.9217 1 48.3848 1 48.8478C1 50.237 2.40066 51.3174 3.6457 51.3174H5.8245C6.60265 51.3174 7.22517 51.9348 7.22517 52.7065V61.1957C7.22517 62.7391 8.62583 63.9739 10.1821 63.9739H15.0066C16.5629 63.9739 18.1192 65.363 18.1192 66.9065V72M34.3046 41.9022L34.7715 39.1239C34.9272 37.1174 36.0166 35.2652 37.4172 33.7217C40.2185 30.7891 41.9305 26.6217 41.6192 22.1457C40.9967 14.8913 34.9272 9.02609 27.6126 8.71739C19.053 8.25435 12.0497 15.0457 12.0497 23.3804C12.0497 27.3935 13.606 30.9435 16.2517 33.5674C17.6523 35.1109 18.7417 36.963 18.8974 39.1239L19.3642 41.9022M29.947 51.7804V52.3978C29.947 54.0957 28.5464 55.4848 26.8344 55.4848C25.1225 55.4848 23.7219 54.0957 23.7219 52.3978V51.7804M20.6093 46.8413C19.2086 46.8413 18.1192 47.9217 18.1192 49.3109C18.1192 50.7 19.2086 51.7804 20.6093 51.7804H33.0596C34.4603 51.7804 35.5497 50.7 35.5497 49.3109C35.5497 47.9217 34.4603 46.8413 33.0596 46.8413M20.6093 46.8413H33.0596M20.6093 46.8413C19.2086 46.8413 18.1192 45.7609 18.1192 44.3717C18.1192 42.9826 19.2086 41.9022 20.6093 41.9022H33.0596C34.4603 41.9022 35.5497 42.9826 35.5497 44.3717C35.5497 45.6065 34.4603 46.8413 33.0596 46.8413M26.8344 1V3.16087M48 11.187L46.4437 12.7304M7.3808 12.7304L5.8245 11.187" stroke="url(#paint0_linear_0_1421)" stroke-width="1.5" stroke-miterlimit="10" stroke-linecap="round" stroke-linejoin="round"/>
<defs>
<linearGradient id="paint0_linear_0_1421" x1="0.582591" y1="37.1548" x2="48.4319" y2="36.576" gradientUnits="userSpaceOnUse">
<stop stop-color="#29CCB9"/>
<stop offset="0.4948" stop-color="#0091FF"/>
<stop offset="1" stop-color="#FF66B7"/>
</linearGradient>
</defs>
</svg>
