<svg width="16" height="16" viewBox="0 0 16 16" fill="none" xmlns="http://www.w3.org/2000/svg">
<path fill-rule="evenodd" clip-rule="evenodd" d="M14.6007 10.8929L11.5381 9.58037C11.2694 9.46583 10.9573 9.54274 10.7725 9.76905L9.41624 11.4261C7.28771 10.4225 5.57473 8.70954 4.57114 6.581L6.2282 5.22473C6.45499 5.04027 6.53199 4.72781 6.41687 4.4591L5.10436 1.39656C4.97751 1.10573 4.6618 0.946156 4.3524 1.01648L1.50861 1.67273C1.21084 1.7415 0.999944 2.0067 1.00001 2.31231C1.00001 9.32607 6.68485 15 13.6877 15C13.9934 15.0002 14.2587 14.7892 14.3275 14.4914L14.9838 11.6476C15.0536 11.3367 14.8929 11.02 14.6007 10.8929H14.6007Z" stroke="url(#paint0_linear_18_33)"/>
<defs>
<linearGradient id="paint0_linear_18_33" x1="0.875665" y1="8.12912" x2="15.126" y2="7.86873" gradientUnits="userSpaceOnUse">
<stop stop-color="#29CCB9"/>
<stop offset="0.4948" stop-color="#0091FF"/>
<stop offset="1" stop-color="#FF66B7"/>
</linearGradient>
</defs>
</svg>
